<svg xmlns="http://www.w3.org/2000/svg" viewBox="0 0 1200 630" font-family="Segoe UI, Tahoma, sans-serif">
  <defs>
    <linearGradient id="bg" x1="0" y1="0" x2="1" y2="1">
      <stop offset="0" stop-color="#0b6e4f"/>
      <stop offset="1" stop-color="#0a4d39"/>
    </linearGradient>
    <linearGradient id="tile" x1="0" y1="0" x2="1" y2="1">
      <stop offset="0" stop-color="#0b6e4f"/>
      <stop offset="1" stop-color="#15885f"/>
    </linearGradient>
    <mask id="crescent">
      <rect width="1200" height="630" fill="black"/>
      <circle cx="318" cy="250" r="60" fill="white"/>
      <circle cx="343" cy="235" r="50" fill="black"/>
    </mask>
  </defs>

  <rect width="1200" height="630" fill="url(#bg)"/>

  <!-- logo tile -->
  <rect x="250" y="190" width="180" height="180" rx="42" fill="url(#tile)" stroke="#d4af37" stroke-width="3"/>
  <rect x="250" y="190" width="180" height="180" fill="#d4af37" mask="url(#crescent)"/>
  <circle cx="368" cy="225" r="11" fill="#d4af37"/>
  <g transform="translate(0,40)">
    <path d="M340 300 C310 282 270 282 245 292 L245 350 C270 340 310 340 340 354 Z" fill="#fff"/>
    <path d="M340 300 C370 282 410 282 435 292 L435 350 C410 340 370 340 340 354 Z" fill="#eef1f0"/>
    <rect x="338" y="300" width="4" height="54" rx="2" fill="#0b6e4f"/>
  </g>

  <!-- text -->
  <text x="250" y="445" fill="#ffffff" font-size="72" font-weight="800">Al-Rahma Academy</text>
  <text x="252" y="500" fill="#d4af37" font-size="34" font-weight="600">Learn the Holy Quran Online</text>
  <text x="252" y="548" fill="#cfe6dc" font-size="27">Tajweed · Hifz · Ijazah · Arabic — certified tutors, 1-to-1</text>
</svg>
